<?xml version="1.0" standalone="no"?>
<!DOCTYPE svg PUBLIC "-//W3C//DTD SVG 1.1//EN" "http://www.w3.org/Graphics/SVG/1.1/DTD/svg11.dtd" >
<svg xmlns="http://www.w3.org/2000/svg">
<metadata></metadata>
<defs>
<font id="whimsy_ttregular" horiz-adv-x="1182" >
<font-face units-per-em="2048" ascent="1638" descent="-410" />
<missing-glyph horiz-adv-x="598" />
<glyph horiz-adv-x="2048" />
<glyph horiz-adv-x="2048" />
<glyph unicode="&#xd;" horiz-adv-x="0" />
<glyph unicode=" "  horiz-adv-x="598" />
<glyph unicode="&#x09;" horiz-adv-x="598" />
<glyph unicode="&#xa0;" horiz-adv-x="598" />
<glyph unicode="!" horiz-adv-x="559" d="M-23 1473l504 65l-49 -1214l-252 -74zM109 -29q0 62 60.5 117.5t160.5 63.5q77 0 126 -33.5t60 -83.5q4 -16 4 -27q0 -55 -45.5 -109.5t-138.5 -76.5q-31 -6 -57 -6q-70 0 -105.5 35.5t-56.5 82.5q-8 22 -8 37z" />
<glyph unicode="&#x22;" horiz-adv-x="1436" d="M0 1319q0 236 322 250q43 0 90.5 -13t92.5 -40t76 -75.5t31 -113.5q-4 -82 -64.5 -185t-140 -190t-126.5 -114l-23 235q-14 0 -22.5 -0.5t-18.5 -1.5q-100 0 -155 52.5t-62 195.5zM748 1319q0 146 101 195.5t220 54.5q56 0 123 -24t117.5 -79t50.5 -139 q-4 -82 -65 -185.5t-140.5 -189t-128.5 -114.5l-20 235q-14 0 -22.5 -0.5t-18.5 -1.5q-100 0 -155 52.5t-62 195.5z" />
<glyph unicode="'" horiz-adv-x="723" d="M0 1319q0 236 322 250q43 0 90.5 -13t92.5 -40t76 -75.5t31 -113.5q-4 -82 -64.5 -185t-140 -190t-126.5 -114l-23 235q-14 0 -22.5 -0.5t-18.5 -1.5q-100 0 -155 52.5t-62 195.5z" />
<glyph unicode="," horiz-adv-x="571" d="M-6 178q0 92 50 140.5t113 63.5t122 17q84 0 171 -52.5t87 -160.5q-4 -74 -58.5 -166t-124 -167.5t-112.5 -100.5l-21 211q-77 0 -124.5 17t-73 63.5t-29.5 134.5z" />
<glyph unicode="." horiz-adv-x="608" d="M37 229q0 75 63 130.5t144 74.5q21 6 49 6q41 0 89 -12.5t88.5 -34t67 -48t29.5 -50.5q0 -62 -53.5 -115.5t-140.5 -93.5q-50 -23 -121 -23q-76 0 -136.5 32t-74.5 95q-4 13 -4 39z" />
<glyph unicode="/" horiz-adv-x="1352" d="M-49 -127l1042 1989l295 -252l-1184 -1817z" />
<glyph unicode="0" horiz-adv-x="1509" d="M25 537q0 228 192 503q63 89 150.5 168.5t189.5 127.5t213 48q134 0 266 -79q100 -61 169 -148.5t105 -193.5t36 -224q0 -91 -22.5 -182t-66.5 -180q-69 -136 -181.5 -222t-238.5 -124.5t-235 -38.5q-74 0 -127 16q-115 36 -218 106t-167.5 178.5t-64.5 244.5zM455 831 q0 -89 63 -159.5t154 -104.5q80 -28 157 -28q185 3 279 190q16 33 16 82q0 76 -48.5 149.5t-143.5 116.5q-78 37 -164 37q-57 0 -110.5 -17.5t-95 -49.5t-66.5 -74q-41 -69 -41 -142z" />
<glyph unicode="1" horiz-adv-x="713" d="M0 1217l326 339l354 -43l-217 -1511l-203 -4l8 1190l-159 -146z" />
<glyph unicode="2" horiz-adv-x="981" d="M12 1339q0 6 34.5 35t98 63.5t152 58.5t188.5 24q137 -7 239 -73t154 -174t52 -241q-3 -88 -65 -191t-148.5 -197.5t-159 -158.5t-86.5 -77q21 0 214 49t206 49l31 -465l-879 -51l-23 162q128 114 225.5 214t183 244.5t101.5 300.5q9 69 9 138q0 137 -45 187t-144 50 q-78 -9 -125.5 -43.5t-91.5 -83.5z" />
<glyph unicode="3" horiz-adv-x="1317" d="M2 1026l43 428l1100 96l-430 -676q96 -11 171.5 -26t159.5 -54.5t143.5 -120.5t59.5 -206q-4 -167 -106.5 -269.5t-236 -147t-234.5 -48.5q-193 0 -357.5 88t-269.5 346l125 66q28 -47 55.5 -93.5t71 -93.5t108.5 -80.5t156 -48.5q84 0 144 46t91 112.5t31 122.5 q0 41 -31.5 88t-83.5 80t-108 33q-82 0 -151 -72l-101 117l291 399z" />
<glyph unicode="4" horiz-adv-x="1171" d="M-2 750l641 700l254 33l37 -805l186 -25l-6 -192h-170l18 -459l-378 -31l20 484l-584 -60zM213 762l367 -39v459z" />
<glyph unicode="5" horiz-adv-x="1145" d="M6 1343l852 148l43 -496l-641 -18l33 -205q193 23 311 23q206 0 338 -62.5t137 -220.5q0 -238 -137.5 -361.5t-439.5 -123.5q-125 0 -242 16l12 172q84 0 147.5 12.5t104.5 54.5t41 124q0 80 -22 128.5t-74 72.5t-143 24q-73 0 -187 -17z" />
<glyph unicode="6" horiz-adv-x="1100" d="M10 455q0 82 13 163t33 157t24 93q22 111 114.5 281.5t262.5 355.5l258 -245q-107 -54 -212 -144t-178.5 -185.5t-91.5 -166.5l9 -4q61 62 126.5 87t145.5 25q47 0 191 -18q150 -20 229 -130t96 -318q0 -119 -79 -208.5t-179.5 -139.5t-155.5 -58l-31.5 -3.5t-55 -5.5 t-68.5 -3q-325 0 -416 243q-35 101 -35 224zM223 485q2 -14 5 -36t15.5 -41t38 -31t72.5 -15q116 0 189 47t73 144q-8 119 -161 119q-63 0 -111 -17q-46 -15 -83.5 -71.5t-37.5 -98.5z" />
<glyph unicode="7" horiz-adv-x="1243" d="M-10 1413l1196 137l-486 -1556l-192 55l305 1034l-713 -172z" />
<glyph unicode="8" horiz-adv-x="1305" d="M0 502q0 96 322 338q-119 73 -176.5 127t-76 99.5t-18.5 102.5q3 78 53 125.5t177 100.5q131 56 237.5 78t208.5 22q68 0 185 -10t169 -12l-55 -168q-99 18 -183.5 26t-166.5 8q-101 0 -176 -13.5t-118.5 -41.5t-43.5 -70q7 -110 180 -208q130 136 197 233l116 -80 q-28 -49 -75.5 -106.5t-91.5 -108.5q56 -20 142 -50.5t181 -87t164.5 -153t69.5 -235.5q-15 -246 -147.5 -332t-346.5 -86q-96 0 -198 12.5t-194.5 36t-162.5 51.5q-89 37 -130.5 161.5t-41.5 240.5zM170 461q13 -134 169 -225t323 -91q140 6 199 31t73 74q0 25 -47.5 79.5 t-109.5 112.5t-143 130.5t-175 156.5q-1 -19 -38 -49.5t-107.5 -81.5t-107 -83t-36.5 -54z" />
<glyph unicode="9" d="M20 1008q0 94 31 221q21 83 79 137.5t131 85t149 43t139 12.5q35 0 63 -4q113 -23 210 -56t195.5 -127t102.5 -251q0 -103 -32.5 -209t-75 -189.5t-88.5 -153.5t-60 -91q-60 -106 -212.5 -248t-391.5 -272l-180 336q95 16 200 52.5t199.5 86.5t164 104t99.5 101l-6 8 q-89 -45 -182 -45q-39 0 -79.5 8.5t-67 18.5t-89.5 39.5t-90 41.5q-209 104 -209 351zM420 897q0 -77 80 -117.5t168 -44.5q53 0 114 49t68 86q12 51 12 62q0 68 -104 108q-72 29 -144 29q-70 0 -120.5 -32.5t-69.5 -102.5q-4 -12 -4 -37z" />
<glyph unicode=":" horiz-adv-x="596" d="M6 858q0 49 29 89t73.5 67.5t90.5 38.5q14 4 45 4q52 0 111.5 -20.5t101 -52t45.5 -62.5q0 -60 -51 -109.5t-132 -85.5q-50 -22 -110 -22q-70 0 -127 30.5t-72 87.5q-4 26 -4 35zM55 416q0 10 4 22q10 29 39 47t69 26.5t93 8.5q35 0 53 -2q52 -5 105.5 -33.5t88 -72.5 t34.5 -93q0 -18 -6 -36q-17 -60 -69.5 -89.5t-121.5 -29.5q-32 0 -86 12q-72 23 -137.5 102t-65.5 138z" />
<glyph unicode="?" horiz-adv-x="1278" d="M31 1389q134 75 303.5 130.5t408.5 55.5q244 0 343.5 -112.5t113.5 -239.5q4 -30 4 -52q0 -76 -41.5 -142t-167 -113.5t-360.5 -47.5l18 -469l-430 -18l129 610h88q193 0 327 23.5t138 91.5q0 121 -157 121q-83 0 -196.5 -31.5t-215.5 -77t-164 -88.5zM172 41 q0 108 67.5 176t196.5 80q15 2 43 2q71 0 119.5 -23t72.5 -57t27 -69q0 -66 -24.5 -111t-71 -74t-121.5 -51q-59 -16 -108 -16q-80 0 -134.5 37.5t-66.5 105.5z" />
<glyph unicode="A" horiz-adv-x="1260" d="M12 80l219 -55l45 223l383 -10l109 -291l432 133l-659 1274l-271 10zM311 424l90 477l174 -438z" />
<glyph unicode="B" horiz-adv-x="1214" d="M23 1294l73 -1257l533 -14q489 56 542 356q9 35 9 76q0 99 -63.5 162.5t-151 97t-250.5 80.5q61 101 61 188q0 93 -67 174q-95 88 -200.5 123t-225.5 35q-96 0 -260 -21zM248 223l12 428q148 -7 269.5 -22.5t217 -49.5t155.5 -94.5t67 -154.5q0 -45 -73 -79.5t-173 -39.5 zM268 942q72 8 144 8q157 0 190 -61q0 -57 -332 -78z" />
<glyph unicode="C" horiz-adv-x="1214" d="M72 721q0 -96 18.5 -190.5t56.5 -170.5t97 -124q221 -183 614 -183q140 0 299 23l-53 207q-105 -7 -172 -7q-249 0 -389 53.5t-140 170.5q0 110 116.5 173.5t342.5 63.5q127 0 250 -16l8 483q-96 41 -244 71t-286 30q-143 0 -251.5 -37t-162.5 -119q-48 -74 -76 -188.5 t-28 -239.5z" />
<glyph unicode="D" horiz-adv-x="1329" d="M12 1274l269 -1307q75 6 147 23.5t138 42t135.5 57t136.5 70.5q119 65 201 155t120.5 191t38.5 203q0 133 -59 249q-47 93 -128 159.5t-184.5 107.5t-220 59.5t-252.5 18.5q-163 0 -342 -29zM367 809q156 33 276 33q282 0 363 -172q12 -28 12 -56q0 -86 -100.5 -175.5 t-234.5 -159.5t-243 -107z" />
<glyph unicode="E" d="M16 1153l910 211l100 -414l-653 -170l43 -223l647 139l27 -245l-648 -27l43 -203l641 17l-20 -213l-770 28z" />
<glyph unicode="F" horiz-adv-x="1020" d="M35 1206l811 166l127 -524l-586 -6v-215l498 22l22 -221l-501 43l16 -457l-133 -43q-42 206 -139 676.5t-115 558.5z" />
<glyph unicode="G" horiz-adv-x="1276" d="M4 662q0 -128 37.5 -244.5t114.5 -206.5q67 -74 152.5 -121.5t182.5 -73.5t193 -36.5t203 -10.5q105 0 227 8l82 492l-688 152l-64 -179l328 -30l-92 -281q-124 13 -218 51t-151.5 95.5t-85.5 131t-28 156.5q0 38 6 82q10 71 74.5 114t161.5 60t223 17q94 0 187 -7.5 t245 -23.5q39 153 56 219.5t41 154t26 87.5q-259 43 -443 43q-121 0 -207.5 -15.5t-150.5 -41.5t-116 -57.5t-118 -72.5q-77 -46 -127.5 -177.5t-50.5 -284.5z" />
<glyph unicode="H" horiz-adv-x="1059" d="M12 1358l420 -49l-70 -725l314 -125l-82 839l416 29l-49 -1284l-246 -43l-27 307l-354 35l-35 -336l-256 12z" />
<glyph unicode="I" horiz-adv-x="504" d="M12 1106q0 -53 15 -91.5t57 -62.5t119 -24q79 0 134.5 52.5t55.5 125.5q0 49 -26 90t-70 64.5t-94 23.5q-79 0 -135 -52t-56 -126zM31 840l49 -822l194 -34l88 856h-331z" />
<glyph unicode="J" horiz-adv-x="776" d="M6 1327q0 68 43 105.5t111 68.5q57 19 123 19q70 0 126.5 -24.5t91 -59.5t44.5 -64q0 -64 -64.5 -130.5t-156.5 -90.5q-79 -21 -127 -21q-135 0 -181 134q-10 27 -10 63zM10 -250l27 121q64 -24 120.5 -38.5t108.5 -14.5q98 0 101 69q4 78 4 113q0 153 -22.5 284 t-51.5 228t-82.5 251.5t-77.5 235.5l445 115q26 -180 52 -378t45 -394t19 -330q0 -115 -18 -162q-32 -86 -99 -141t-188 -55q-148 0 -383 96z" />
<glyph unicode="K" horiz-adv-x="1421" d="M-8 1534l489 8l-32 -584l595 553l273 -424l-737 -288l774 -393l-219 -402l-705 600l-37 -643l-250 14z" />
<glyph unicode="L" horiz-adv-x="1059" d="M61 1358l486 14l-185 -1329l599 86v-137l-885 -191z" />
<glyph unicode="M" horiz-adv-x="2132" d="M14 76q0 7 53 166.5t120 361t148 442t140 416.5l221 -47l205 -590l359 752l772 -1278l-420 -299l-428 920l-332 -832l-344 711l-338 -803z" />
<glyph unicode="N" horiz-adv-x="1165" d="M33 1501l270 27l512 -731l35 680l260 24l-68 -1497l-268 -6l-430 567l-33 -545h-245z" />
<glyph unicode="O" horiz-adv-x="1464" d="M45 870q0 136 39.5 259.5t133.5 216t247 127.5q78 16 145 16q145 0 277.5 -63.5t234 -185.5t152.5 -284q31 -104 31 -200q0 -139 -54 -268.5t-132 -219t-150 -127.5q-162 -82 -330 -82q-98 0 -189 33.5t-170 110t-136.5 201.5t-86.5 305q-12 76 -12 161zM297 915 q0 -21 8 -61q29 -106 98.5 -155.5t159.5 -49.5q81 0 156 35q113 54 167 128.5t54 168.5q0 63 -20 127q-19 62 -86 107t-160 45q-54 0 -125 -23q-113 -39 -182.5 -131t-69.5 -191z" />
<glyph unicode="P" d="M6 1425q242 93 471 93q193 0 365 -72q124 -54 188 -168t64 -287q0 -76 -13 -155q-24 -176 -156 -269.5t-354 -138.5l52 -401l-263 -68zM487 936l41 -283q71 22 126.5 41.5t107 47t67.5 57.5q19 29 19 57q0 59 -90 80q-52 12 -113 12q-47 0 -158 -12z" />
<glyph unicode="Q" horiz-adv-x="1536" d="M29 776q0 141 39.5 272.5t137.5 233.5t263 143q87 23 166 23q124 0 233 -45.5t198 -125.5t154.5 -183t104.5 -213q31 -84 31 -195q0 -100 -26 -201.5t-73 -189.5l207 -244l-219 -170l-131 225q-51 -59 -113 -86q-185 -86 -348 -86q-103 0 -192 33q-165 60 -275 223.5 t-147 430.5q-10 78 -10 155zM401 573q26 -156 104.5 -253t252.5 -97q55 0 104 8q98 17 150 48l-64 106l117 133l78 -90q10 45 10 78q0 26 -8 72q-16 70 -60 128.5t-107 100.5t-132.5 64t-143.5 22q-45 0 -77 -8q-57 -12 -109 -59t-83.5 -114.5t-31.5 -138.5z" />
<glyph unicode="R" horiz-adv-x="1069" d="M6 1522q27 2 82 2q175 0 339 -42t294.5 -125t206.5 -203.5t76 -274.5q0 -87 -26 -161t-92 -129.5t-179 -78.5l313 -393l-96 -109l-551 459l-8 -471l-211 20zM385 664q33 -4 80 -9.5t101.5 -9.5t80.5 -4q85 0 135 22t60 76q0 117 -138.5 170.5t-306.5 59.5z" />
<glyph unicode="S" horiz-adv-x="1167" d="M8 1008q0 181 57 299.5t173 165.5q45 18 122 18q103 0 253 -28.5t282.5 -66.5t216.5 -69l-111 -528q-55 20 -129 40.5t-152.5 36.5t-144 24.5t-124.5 8.5q-40 0 -70 -6q-66 -10 -66 -39q0 -12 23 -37q12 -11 92.5 -45.5t181 -77t172.5 -75.5t107 -58q56 -38 83 -109 t27 -157q0 -43 -8 -88.5t-21.5 -80t-34.5 -61t-46 -38.5q-78 -33 -211 -33q-145 0 -288.5 42.5t-249 141.5t-126.5 258l236 78q69 -100 116 -160.5t112 -113.5t128 -53q64 0 119 61q51 57 51 104q0 49 -41 81t-108 61.5t-72 34.5q-6 7 -103.5 43t-194.5 84t-170.5 120.5 t-78.5 163.5q0 20 -0.5 32t-1.5 26z" />
<glyph unicode="T" horiz-adv-x="1143" d="M4 1282l1032 252l54 -207l-314 -65l162 -1260l-219 -57l-352 1231l-299 -62z" />
<glyph unicode="U" horiz-adv-x="1233" d="M16 1505l488 -37q2 -155 6 -327t15 -359.5t26 -309t39 -159.5q33 -51 88 -51q52 0 106.5 48.5t94.5 138.5q39 93 39 348q0 110 -5.5 210t-15 196t-20.5 157t-19 61l225 -18q15 -153 29 -343t14 -331q0 -366 -90 -485q-74 -100 -221 -170t-297 -70q-187 0 -287 117 q-88 106 -134 345.5t-59.5 477t-21.5 561.5z" />
<glyph unicode="V" horiz-adv-x="1397" d="M-10 1313l405 215l420 -934l369 962l147 -57l-536 -1450l-224 -49z" />
<glyph unicode="W" horiz-adv-x="2048" d="M-2 1206l393 303l447 -878l292 819l359 -678l301 793l154 -74q0 -8 -46.5 -170.5t-102.5 -351.5t-123 -412.5t-128 -427.5l-217 39l-217 563l-324 -739z" />
<glyph unicode="X" horiz-adv-x="1233" d="M4 1255l334 287l324 -561l354 461l160 -199l-388 -479l299 -516l-145 -174l-352 444l-414 -510l-135 162l405 528z" />
<glyph unicode="Y" horiz-adv-x="1268" d="M6 1079l262 387l432 -544l385 571l123 -127l-823 -1472l-252 186l316 450z" />
<glyph unicode="Z" horiz-adv-x="1346" d="M-12 -2v188l678 861l-549 -144l-45 586q12 0 139 6.5t310 15t424 19t284 12.5l53 -90l-1014 -1288l908 90v-256h-1188z" />
<glyph unicode="\" horiz-adv-x="1296" d="M-164 1905l342 266l1057 -2269l-176 -80z" />
<glyph unicode="a" horiz-adv-x="1260" d="M12 80l219 -55l45 223l383 -10l109 -291l432 133l-659 1274l-271 10zM311 424l90 477l174 -438z" />
<glyph unicode="b" horiz-adv-x="1292" d="M23 1294l73 -1257l533 -14q489 56 542 356q9 35 9 76q0 99 -63.5 162.5t-151 97t-250.5 80.5q61 101 61 188q0 93 -67 174q-95 88 -200.5 123t-225.5 35q-96 0 -260 -21zM248 223l12 428q148 -7 269.5 -22.5t217 -49.5t155.5 -94.5t67 -154.5q0 -45 -73 -79.5t-173 -39.5 zM268 942q72 8 144 8q157 0 190 -61q0 -57 -332 -78z" />
<glyph unicode="c" horiz-adv-x="1214" d="M72 721q0 -96 18.5 -190.5t56.5 -170.5t97 -124q221 -183 614 -183q140 0 299 23l-53 207q-105 -7 -172 -7q-249 0 -389 53.5t-140 170.5q0 110 116.5 173.5t342.5 63.5q127 0 250 -16l8 483q-96 41 -244 71t-286 30q-143 0 -251.5 -37t-162.5 -119q-48 -74 -76 -188.5 t-28 -239.5z" />
<glyph unicode="d" horiz-adv-x="1329" d="M12 1274l269 -1307q75 6 147 23.5t138 42t135.5 57t136.5 70.5q119 65 201 155t120.5 191t38.5 203q0 133 -59 249q-47 93 -128 159.5t-184.5 107.5t-220 59.5t-252.5 18.5q-163 0 -342 -29zM367 809q156 33 276 33q282 0 363 -172q12 -28 12 -56q0 -86 -100.5 -175.5 t-234.5 -159.5t-243 -107z" />
<glyph unicode="e" d="M16 1153l910 211l100 -414l-653 -170l43 -223l647 139l27 -245l-648 -27l43 -203l641 17l-20 -213l-770 28z" />
<glyph unicode="f" horiz-adv-x="1020" d="M35 1206l811 166l127 -524l-586 -6v-215l498 22l22 -221l-501 43l16 -457l-133 -43q-42 206 -139 676.5t-115 558.5z" />
<glyph unicode="g" horiz-adv-x="1276" d="M4 662q0 -128 37.5 -244.5t114.5 -206.5q67 -74 152.5 -121.5t182.5 -73.5t193 -36.5t203 -10.5q105 0 227 8l82 492l-688 152l-64 -179l328 -30l-92 -281q-124 13 -218 51t-151.5 95.5t-85.5 131t-28 156.5q0 38 6 82q10 71 74.5 114t161.5 60t223 17q94 0 187 -7.5 t245 -23.5q39 153 56 219.5t41 154t26 87.5q-259 43 -443 43q-121 0 -207.5 -15.5t-150.5 -41.5t-116 -57.5t-118 -72.5q-77 -46 -127.5 -177.5t-50.5 -284.5z" />
<glyph unicode="h" horiz-adv-x="1059" d="M12 1358l420 -49l-70 -725l314 -125l-82 839l416 29l-49 -1284l-246 -43l-27 307l-354 35l-35 -336l-256 12z" />
<glyph unicode="i" horiz-adv-x="545" d="M12 1106q0 -53 15 -91.5t57 -62.5t119 -24q79 0 134.5 52.5t55.5 125.5q0 49 -26 90t-70 64.5t-94 23.5q-79 0 -135 -52t-56 -126zM31 840l49 -822l194 -34l88 856h-331z" />
<glyph unicode="j" horiz-adv-x="776" d="M6 1327q0 68 43 105.5t111 68.5q57 19 123 19q70 0 126.5 -24.5t91 -59.5t44.5 -64q0 -64 -64.5 -130.5t-156.5 -90.5q-79 -21 -127 -21q-135 0 -181 134q-10 27 -10 63zM10 -250l27 121q64 -24 120.5 -38.5t108.5 -14.5q98 0 101 69q4 78 4 113q0 153 -22.5 284 t-51.5 228t-82.5 251.5t-77.5 235.5l445 115q26 -180 52 -378t45 -394t19 -330q0 -115 -18 -162q-32 -86 -99 -141t-188 -55q-148 0 -383 96z" />
<glyph unicode="k" horiz-adv-x="1421" d="M-8 1534l489 8l-32 -584l595 553l273 -424l-737 -288l774 -393l-219 -402l-705 600l-37 -643l-250 14z" />
<glyph unicode="l" horiz-adv-x="1059" d="M61 1358l486 14l-185 -1329l599 86v-137l-885 -191z" />
<glyph unicode="m" horiz-adv-x="2132" d="M14 76q0 7 53 166.5t120 361t148 442t140 416.5l221 -47l205 -590l359 752l772 -1278l-420 -299l-428 920l-332 -832l-344 711l-338 -803z" />
<glyph unicode="n" horiz-adv-x="1165" d="M33 1501l270 27l512 -731l35 680l260 24l-68 -1497l-268 -6l-430 567l-33 -545h-245z" />
<glyph unicode="o" horiz-adv-x="1464" d="M45 870q0 136 39.5 259.5t133.5 216t247 127.5q78 16 145 16q145 0 277.5 -63.5t234 -185.5t152.5 -284q31 -104 31 -200q0 -139 -54 -268.5t-132 -219t-150 -127.5q-162 -82 -330 -82q-98 0 -189 33.5t-170 110t-136.5 201.5t-86.5 305q-12 76 -12 161zM297 915 q0 -21 8 -61q29 -106 98.5 -155.5t159.5 -49.5q81 0 156 35q113 54 167 128.5t54 168.5q0 63 -20 127q-19 62 -86 107t-160 45q-54 0 -125 -23q-113 -39 -182.5 -131t-69.5 -191z" />
<glyph unicode="p" d="M6 1425q242 93 471 93q193 0 365 -72q124 -54 188 -168t64 -287q0 -76 -13 -155q-24 -176 -156 -269.5t-354 -138.5l52 -401l-263 -68zM487 936l41 -283q71 22 126.5 41.5t107 47t67.5 57.5q19 29 19 57q0 59 -90 80q-52 12 -113 12q-47 0 -158 -12z" />
<glyph unicode="q" horiz-adv-x="1536" d="M29 776q0 141 39.5 272.5t137.5 233.5t263 143q87 23 166 23q124 0 233 -45.5t198 -125.5t154.5 -183t104.5 -213q31 -84 31 -195q0 -100 -26 -201.5t-73 -189.5l207 -244l-219 -170l-131 225q-51 -59 -113 -86q-185 -86 -348 -86q-103 0 -192 33q-165 60 -275 223.5 t-147 430.5q-10 78 -10 155zM401 573q26 -156 104.5 -253t252.5 -97q55 0 104 8q98 17 150 48l-64 106l117 133l78 -90q10 45 10 78q0 26 -8 72q-16 70 -60 128.5t-107 100.5t-132.5 64t-143.5 22q-45 0 -77 -8q-57 -12 -109 -59t-83.5 -114.5t-31.5 -138.5z" />
<glyph unicode="r" horiz-adv-x="1069" d="M6 1522q27 2 82 2q175 0 339 -42t294.5 -125t206.5 -203.5t76 -274.5q0 -87 -26 -161t-92 -129.5t-179 -78.5l313 -393l-96 -109l-551 459l-8 -471l-211 20zM385 664q33 -4 80 -9.5t101.5 -9.5t80.5 -4q85 0 135 22t60 76q0 117 -138.5 170.5t-306.5 59.5z" />
<glyph unicode="s" horiz-adv-x="1167" d="M8 1008q0 181 57 299.5t173 165.5q45 18 122 18q103 0 253 -28.5t282.5 -66.5t216.5 -69l-111 -528q-55 20 -129 40.5t-152.5 36.5t-144 24.5t-124.5 8.5q-40 0 -70 -6q-66 -10 -66 -39q0 -12 23 -37q12 -11 92.5 -45.5t181 -77t172.5 -75.5t107 -58q56 -38 83 -109 t27 -157q0 -43 -8 -88.5t-21.5 -80t-34.5 -61t-46 -38.5q-78 -33 -211 -33q-145 0 -288.5 42.5t-249 141.5t-126.5 258l236 78q69 -100 116 -160.5t112 -113.5t128 -53q64 0 119 61q51 57 51 104q0 49 -41 81t-108 61.5t-72 34.5q-6 7 -103.5 43t-194.5 84t-170.5 120.5 t-78.5 163.5q0 20 -0.5 32t-1.5 26z" />
<glyph unicode="t" horiz-adv-x="1143" d="M4 1282l1032 252l54 -207l-314 -65l162 -1260l-219 -57l-352 1231l-299 -62z" />
<glyph unicode="u" horiz-adv-x="1233" d="M16 1505l488 -37q2 -155 6 -327t15 -359.5t26 -309t39 -159.5q33 -51 88 -51q52 0 106.5 48.5t94.5 138.5q39 93 39 348q0 110 -5.5 210t-15 196t-20.5 157t-19 61l225 -18q15 -153 29 -343t14 -331q0 -366 -90 -485q-74 -100 -221 -170t-297 -70q-187 0 -287 117 q-88 106 -134 345.5t-59.5 477t-21.5 561.5z" />
<glyph unicode="v" horiz-adv-x="1397" d="M-10 1313l405 215l420 -934l369 962l147 -57l-536 -1450l-224 -49z" />
<glyph unicode="w" horiz-adv-x="2048" d="M-2 1206l393 303l447 -878l292 819l359 -678l301 793l154 -74q0 -8 -46.5 -170.5t-102.5 -351.5t-123 -412.5t-128 -427.5l-217 39l-217 563l-324 -739z" />
<glyph unicode="x" horiz-adv-x="1233" d="M4 1255l334 287l324 -561l354 461l160 -199l-388 -479l299 -516l-145 -174l-352 444l-414 -510l-135 162l405 528z" />
<glyph unicode="y" horiz-adv-x="1268" d="M6 1079l262 387l432 -544l385 571l123 -127l-823 -1472l-252 186l316 450z" />
<glyph unicode="z" horiz-adv-x="1346" d="M-12 -2v188l678 861l-549 -144l-45 586q12 0 139 6.5t310 15t424 19t284 12.5l53 -90l-1014 -1288l908 90v-256h-1188z" />
<glyph unicode="{" horiz-adv-x="778" d="M31 618v228q74 0 116.5 14t67 58.5t27.5 132.5q5 138 27 236.5t67 165.5t120 108.5t185 58.5l84 -238q-82 -11 -117 -88.5t-35 -249.5q0 -91 -50.5 -176t-135.5 -125q94 -43 140 -125.5t46 -216.5q0 -127 17 -201t49 -103t86 -36l-84 -237q-109 9 -184 48t-121.5 110 t-68.5 173t-27 246q-4 92 -28.5 139.5t-65.5 62.5t-115 15z" />
<glyph unicode="}" horiz-adv-x="778" d="M53 61q56 8 88.5 43t48 108t15.5 187q0 97 51 183t141 131q-98 47 -145 126t-47 203q0 190 -35 261t-117 79l84 238q146 -12 231.5 -76.5t125 -184t45.5 -306.5q4 -95 28 -141.5t65 -61t116 -14.5v-228q-74 0 -116.5 -14t-67 -59t-27.5 -132q-6 -189 -44.5 -306.5 t-123 -183t-232.5 -89.5z" />
<glyph unicode="&#x2000;" horiz-adv-x="1085" />
<glyph unicode="&#x2001;" horiz-adv-x="2171" />
<glyph unicode="&#x2002;" horiz-adv-x="1085" />
<glyph unicode="&#x2003;" horiz-adv-x="2171" />
<glyph unicode="&#x2004;" horiz-adv-x="723" />
<glyph unicode="&#x2005;" horiz-adv-x="542" />
<glyph unicode="&#x2006;" horiz-adv-x="361" />
<glyph unicode="&#x2007;" horiz-adv-x="361" />
<glyph unicode="&#x2008;" horiz-adv-x="271" />
<glyph unicode="&#x2009;" horiz-adv-x="434" />
<glyph unicode="&#x200a;" horiz-adv-x="120" />
<glyph unicode="&#x2018;" horiz-adv-x="741" d="M10 1077q4 82 66 187.5t141.5 191t128.5 113.5l21 -238q11 1 19.5 1.5t21.5 0.5q100 0 154.5 -52t62.5 -196q0 -146 -99.5 -194t-222.5 -53q-55 0 -124 24.5t-119 77.5t-50 137z" />
<glyph unicode="&#x2019;" horiz-adv-x="723" d="M0 1319q0 236 322 250q43 0 90.5 -13t92.5 -40t76 -75.5t31 -113.5q-4 -82 -64.5 -185t-140 -190t-126.5 -114l-23 235q-14 0 -22.5 -0.5t-18.5 -1.5q-100 0 -155 52.5t-62 195.5z" />
<glyph unicode="&#x201c;" horiz-adv-x="1452" d="M10 1077q4 82 66 187.5t141.5 191t128.5 113.5l21 -238q11 1 19.5 1.5t21.5 0.5q100 0 154.5 -52t62.5 -196q0 -146 -99.5 -194t-222.5 -53q-55 0 -124 24.5t-119 77.5t-50 137zM758 1077q4 82 65 186.5t140.5 190.5t128.5 115l22 -238q11 1 19.5 1.5t21.5 0.5 q101 0 155.5 -51.5t61.5 -196.5q0 -146 -99.5 -194t-221.5 -53q-97 0 -195 59t-98 180z" />
<glyph unicode="&#x201d;" horiz-adv-x="1436" d="M0 1319q0 236 322 250q43 0 90.5 -13t92.5 -40t76 -75.5t31 -113.5q-4 -82 -64.5 -185t-140 -190t-126.5 -114l-23 235q-14 0 -22.5 -0.5t-18.5 -1.5q-100 0 -155 52.5t-62 195.5zM748 1319q0 146 101 195.5t220 54.5q56 0 123 -24t117.5 -79t50.5 -139 q-4 -82 -65 -185.5t-140.5 -189t-128.5 -114.5l-20 235q-14 0 -22.5 -0.5t-18.5 -1.5q-100 0 -155 52.5t-62 195.5z" />
<glyph unicode="&#x202f;" horiz-adv-x="434" />
<glyph unicode="&#x205f;" horiz-adv-x="542" />
<glyph unicode="&#xe000;" horiz-adv-x="1540" d="M0 0v1540h1540v-1540h-1540z" />
</font>
</defs>
</svg>
